HIERARCHY
ROOT Hips
{
	OFFSET 0.000000 0.000000 0.000000
	CHANNELS 6 Xposition Yposition Zposition Zrotation Yrotation Xrotation 
	JOINT LHipJoint
	{
		OFFSET 0.000000 0.000000 0.000000
		CHANNELS 3 Zrotation Yrotation Xrotation
		JOINT LeftUpLeg
		{
			OFFSET 1.363060 -1.794630 0.839290
			CHANNELS 3 Zrotation Yrotation Xrotation
			JOINT LeftLeg
			{
				OFFSET 2.448110 -6.726130 0.000000
				CHANNELS 3 Zrotation Yrotation Xrotation
				JOINT LeftFoot
				{
					OFFSET 2.562200 -7.039590 0.000000
					CHANNELS 3 Zrotation Yrotation Xrotation
					JOINT LeftToeBase
					{
						OFFSET 0.157640 -0.433110 2.322550
						CHANNELS 3 Zrotation Yrotation Xrotation
						End Site
						{
							OFFSET 0.000000 0.000000 0.000000
						}
					}
				}
			}
		}
	}
	JOINT RHipJoint
	{
		OFFSET 0.000000 0.000000 0.000000
		CHANNELS 3 Zrotation Yrotation Xrotation
		JOINT RightUpLeg
		{
			OFFSET -1.305520 -1.794630 0.839290
			CHANNELS 3 Zrotation Yrotation Xrotation
			JOINT RightLeg
			{
				OFFSET -2.542530 -6.985550 0.000000
				CHANNELS 3 Zrotation Yrotation Xrotation
				JOINT RightFoot
				{
					OFFSET -2.568260 -7.056230 0.000000
					CHANNELS 3 Zrotation Yrotation Xrotation
					JOINT RightToeBase
					{
						OFFSET -0.164730 -0.452590 2.363150
						CHANNELS 3 Zrotation Yrotation Xrotation
						End Site
						{
							OFFSET 0.000000 0.000000 0.000000
						}
					}
				}
			}
		}
	}
}
MOTION
Frames: 22
Frame Time: 0.008333
6.562039 16.990532 0.358090 17.527981 61.642777 35.627334 -11.145224 5.883275 0.078806 -14.008204 17.518795 -8.205353 -2.403115 1.086687 20.135549 0.091375 -2.155529 14.704421 -0.668000 0.000001 -82.933901 8.272412 -1.401792 5.541080 15.788892 4.469850 -37.232638 2.964184 1.834851 5.969793 -2.477260 -8.718416 -7.980184 -1.044400 -0.000000 -3.296500
6.748469 16.962579 0.442537 17.285882 61.432272 35.566137 -11.314113 5.952891 0.184252 -13.592639 17.658561 -8.823288 -2.254618 1.196521 21.722980 0.114135 -3.021894 16.026112 -1.064700 0.000000 -84.616400 8.148804 -1.480812 5.744710 15.568055 5.378652 -37.938422 2.855981 1.556662 8.638873 -2.647558 -8.794580 -9.499739 179.259000 0.000000 -2.863800
6.931131 16.940941 0.527195 16.966041 61.207270 35.349653 -11.489425 6.007866 0.271481 -13.104766 17.848566 -9.436472 -2.086266 1.305825 23.392219 0.157024 -3.998952 17.619222 -1.564500 -0.000000 -85.677600 8.041787 -1.553758 5.849590 15.476938 6.016324 -38.567884 2.764428 1.249447 11.451322 -2.774596 -8.714353 -11.010020 179.583200 0.000000 -7.406300
7.108403 16.925447 0.612713 16.586314 60.962352 34.982213 -11.660833 6.043159 0.331161 -12.556453 18.083781 -10.017757 -1.902787 1.410549 25.131927 0.224633 -5.035974 19.431164 -2.162600 0.000000 -85.946300 7.957430 -1.615802 5.853832 15.512954 6.373130 -39.019897 2.692369 0.939843 14.214908 -2.858447 -8.505983 -12.480171 179.909200 0.000000 -10.567500
7.279155 16.915791 0.699725 16.146591 60.695063 34.468063 -11.820814 6.052919 0.354324 -11.953920 18.357674 -10.561385 -1.711504 1.507372 26.940033 0.317422 -6.060065 21.360260 -2.830900 -0.000001 -85.240300 7.893709 -1.665924 5.773009 15.660966 6.495527 -39.208190 2.640967 0.656934 16.727729 -2.910333 -8.231636 -13.878144 -179.780400 0.000000 -12.638600
7.442657 16.911140 0.789050 15.667036 60.401978 33.834166 -11.961114 6.034940 0.337999 -11.316591 18.657651 -11.068189 -1.521003 1.594883 28.813062 0.431018 -6.977775 23.287953 -3.513200 -0.000000 -83.490300 7.849316 -1.706181 5.620738 15.902477 6.410542 -39.101401 2.613507 0.416217 18.878029 -2.935539 -7.911222 -15.189320 -179.494600 -0.000000 -13.864100
7.598644 16.910527 0.881548 15.172719 60.082910 33.119729 -12.075198 5.989413 0.282634 -10.667010 18.968716 -11.551703 -1.338956 1.674307 30.750414 0.557208 -7.679746 25.080403 -4.126100 0.000000 -80.708201 7.822027 -1.739313 5.416396 16.208286 6.161805 -38.697353 2.609675 0.226933 20.594757 -2.940383 -7.566129 -16.394492 -179.240700 0.000000 -14.430100
7.747297 16.912807 0.977992 14.694855 59.740073 32.368416 -12.158496 5.919544 0.191658 -10.028578 19.276237 -12.024879 -1.170167 1.749188 32.747476 0.686606 -8.057699 26.613655 -4.572800 -0.000001 -76.980000 7.811015 -1.767332 5.176728 16.546053 5.784922 -38.016854 2.627254 0.090740 21.858832 -2.927325 -7.201443 -17.476358 -179.023900 -0.000000 -14.488800
7.889255 16.916841 1.079251 14.275250 59.377759 31.639670 -12.207672 5.830622 0.073801 -9.433591 19.559874 -12.510978 -1.015864 1.823585 34.794315 0.811516 -8.019348 27.793706 -4.764400 -0.000000 -72.556600 7.817787 -1.791128 4.920440 16.875250 5.315485 -37.108355 2.661197 0.004594 22.690633 -2.897251 -6.816181 -18.420699 -178.847800 -0.000000 -14.178300
8.025439 16.921678 1.185791 13.942744 59.002802 30.976966 -12.222724 5.727990 -0.061794 -8.905138 19.802407 -13.026524 -0.874418 1.900756 36.869913 0.928032 -7.510156 28.565314 -4.643200 0.000000 -67.805500 7.843213 -1.810472 4.662965 17.162299 4.788767 -36.020687 2.705552 -0.036831 23.131364 -2.850751 -6.410154 -19.217806 -178.714000 0.000000 -13.650400
8.157058 16.926690 1.297716 13.712736 58.621937 30.411943 -12.206050 5.616219 -0.205035 -8.460241 19.986396 -13.586459 -0.743134 1.982176 38.947341 1.035570 -6.523828 28.904510 -4.196400 0.000000 -63.068900 7.887123 -1.824696 4.418818 17.380690 4.244536 -34.802966 2.753675 -0.039573 23.233419 -2.790256 -5.990829 -19.865643 -178.621100 0.000000 -13.071501
8.285473 16.931567 1.414976 13.593036 58.240983 29.970698 -12.160908 5.498816 -0.344388 -8.114740 20.092339 -14.206488 -0.619593 2.066954 40.993758 1.135947 -5.099962 28.817263 -3.456100 0.000000 -58.646901 7.948877 -1.833163 4.202437 17.509936 3.725322 -33.508603 2.798741 -0.010121 23.057113 -2.720385 -5.573161 -20.372286 -178.564100 0.000000 -12.606000
8.412079 16.936327 1.537177 13.576673 57.863824 29.664859 -12.091883 5.378158 -0.469549 -7.876597 20.105793 -14.899455 -0.502784 2.152707 42.975331 1.231622 -3.320386 28.324470 -2.491801 -0.000000 -54.688100 8.026207 -1.836016 4.026307 17.540718 3.273940 -32.184623 2.834724 0.045185 22.662865 -2.647682 -5.179568 -20.753025 -178.534999 -0.000000 -12.384900
8.538039 16.941340 1.663595 13.644405 57.491334 29.487024 -12.004010 5.255206 -0.573031 -7.743022 20.016883 -15.663819 -0.392930 2.235673 44.849977 1.325962 -1.293072 27.480629 -1.396400 0.000000 -51.395400 8.115901 -1.833729 3.897234 17.475288 2.925473 -30.862092 2.856971 0.120305 22.104716 -2.579193 -4.835762 -21.026601 -178.524100 0.000001 -12.474900
8.664460 16.947077 1.793527 13.773064 57.122077 29.428086 -11.902471 5.130789 -0.647998 -7.708048 19.820796 -16.504123 -0.291802 2.312323 46.586280 1.419810 0.855828 26.331911 -0.269300 0.000000 -48.634200 8.213819 -1.828196 3.821493 17.323199 2.708644 -29.571816 2.862432 0.209963 21.429877 -2.521664 -4.566601 -21.211039 -178.522200 0.000000 -12.861100
8.792005 16.954196 1.926065 13.933147 56.752045 29.462691 -11.792097 5.004944 -0.691451 -7.755406 19.517644 -17.407556 -0.201503 2.379154 48.148698 1.513614 3.002857 24.953574 0.799000 -0.000000 -46.387100 8.315947 -1.821161 3.797416 17.101764 2.634405 -28.324403 2.850173 0.309513 20.673318 -2.479422 -4.389290 -21.320461 -178.521800 0.000001 -13.459800
8.920840 16.963274 2.060348 14.097548 56.376227 29.561162 -11.676593 4.877580 -0.702816 -7.864551 19.111106 -18.354498 -0.123968 2.433430 49.508295 1.605896 5.037367 23.425235 1.738600 -0.000001 -44.568500 8.419386 -1.814434 3.818435 16.830394 2.696553 -27.118498 2.821150 0.415121 19.858030 -2.453667 -4.309388 -21.363559 -178.519000 0.000000 -14.147000
9.050910 16.974841 2.195612 14.242578 55.989154 29.694684 -11.558838 4.748652 -0.682822 -8.014462 18.605424 -19.324335 -0.060489 2.473378 50.644778 1.693737 6.872244 21.827056 2.507199 0.000000 -43.078300 8.521969 -1.809634 3.874955 16.529205 2.875728 -25.946989 2.777991 0.523973 18.996325 -2.442694 -4.320745 -21.343162 -178.512800 0.000000 -14.792800
9.181796 16.989160 2.331333 14.351610 55.586074 29.836757 -11.440328 4.618165 -0.634167 -8.184900 18.006608 -20.294913 -0.011435 2.498393 51.548538 1.773138 8.448355 20.227301 3.088900 -0.000000 -41.783600 8.623144 -1.807959 3.954523 16.216622 3.140497 -24.795563 2.724460 0.633978 18.091276 -2.441738 -4.405236 -21.255930 -178.506100 -0.000000 -15.286600
9.312856 17.006314 2.467081 14.415615 55.162457 29.967224 -11.321401 4.486120 -0.559735 -8.360638 17.317505 -21.245954 0.023934 2.508411 52.216937 1.841052 9.741762 18.690388 3.493801 0.000000 -40.679100 8.723810 -1.809958 4.043528 15.907099 3.451704 -23.649534 2.664954 0.743547 17.141006 -2.443469 -4.534415 -21.092926 -178.504500 -0.000000 -15.548400
9.443328 17.026182 2.602693 14.434665 54.715070 30.074863 -11.201086 4.352615 -0.462743 -8.532712 16.539412 -22.161630 0.047130 2.504014 52.656369 1.895707 10.759714 17.261152 3.748800 0.000000 -39.785900 8.826509 -1.815718 4.128921 15.609449 3.767989 -22.496625 2.603661 0.851230 16.142043 -2.438974 -4.674043 -20.840061 -178.515800 0.000000 -15.530000
9.572512 17.048346 2.738019 14.411990 54.242107 30.153134 -11.077855 4.218224 -0.347403 -8.696901 15.677968 -23.035796 0.059259 2.487401 52.890267 1.934857 11.522763 15.922094 3.878199 0.000000 -38.775600 8.934001 -1.825739 4.200974 15.328919 4.054200 -21.328833 2.544157 0.955631 15.091706 -2.419521 -4.790857 -20.480407 -178.547801 0.000000 -15.211700
